<svg xmlns="http://www.w3.org/2000/svg" xmlns:xlink="http://www.w3.org/1999/xlink" width="500" zoomAndPan="magnify" viewBox="0 0 375 374.999991" height="500" preserveAspectRatio="xMidYMid meet" version="1.0"><defs><g/></defs><rect x="-37.5" width="450" fill="#ffffff" y="-37.499999" height="449.999989" fill-opacity="1"/><rect x="-37.5" width="450" fill="#ffffff" y="-37.499999" height="449.999989" fill-opacity="1"/><g fill="#000000" fill-opacity="1"><g transform="translate(276.476031, 201.638672)"><g><path d="M 11.71875 -9.34375 C 11.71875 -8.539062 11.53125 -7.804688 11.15625 -7.140625 C 10.789062 -6.484375 10.226562 -5.953125 9.46875 -5.546875 C 8.71875 -5.148438 7.78125 -4.953125 6.65625 -4.953125 L 4.578125 -4.953125 L 4.578125 0 L 1.21875 0 L 1.21875 -13.78125 L 6.65625 -13.78125 C 7.75 -13.78125 8.675781 -13.585938 9.4375 -13.203125 C 10.195312 -12.828125 10.765625 -12.304688 11.140625 -11.640625 C 11.523438 -10.972656 11.71875 -10.207031 11.71875 -9.34375 Z M 6.390625 -7.609375 C 7.035156 -7.609375 7.515625 -7.757812 7.828125 -8.0625 C 8.140625 -8.363281 8.296875 -8.789062 8.296875 -9.34375 C 8.296875 -9.894531 8.140625 -10.316406 7.828125 -10.609375 C 7.515625 -10.910156 7.035156 -11.0625 6.390625 -11.0625 L 4.578125 -11.0625 L 4.578125 -7.609375 Z M 6.390625 -7.609375 "/></g></g></g><g fill="#000000" fill-opacity="1"><g transform="translate(288.717123, 201.638672)"><g><path d="M 8.25 0 L 5.375 -5.203125 L 4.578125 -5.203125 L 4.578125 0 L 1.21875 0 L 1.21875 -13.78125 L 6.84375 -13.78125 C 7.9375 -13.78125 8.863281 -13.585938 9.625 -13.203125 C 10.394531 -12.828125 10.96875 -12.304688 11.34375 -11.640625 C 11.71875 -10.984375 11.90625 -10.25 11.90625 -9.4375 C 11.90625 -8.519531 11.644531 -7.703125 11.125 -6.984375 C 10.613281 -6.265625 9.851562 -5.753906 8.84375 -5.453125 L 12.03125 0 Z M 4.578125 -7.578125 L 6.65625 -7.578125 C 7.269531 -7.578125 7.726562 -7.726562 8.03125 -8.03125 C 8.34375 -8.332031 8.5 -8.753906 8.5 -9.296875 C 8.5 -9.828125 8.34375 -10.238281 8.03125 -10.53125 C 7.726562 -10.832031 7.269531 -10.984375 6.65625 -10.984375 L 4.578125 -10.984375 Z M 4.578125 -7.578125 "/></g></g></g><g fill="#000000" fill-opacity="1"><g transform="translate(301.507497, 201.638672)"><g><path d="M 7.734375 0.140625 C 6.441406 0.140625 5.253906 -0.160156 4.171875 -0.765625 C 3.085938 -1.367188 2.226562 -2.207031 1.59375 -3.28125 C 0.957031 -4.363281 0.640625 -5.578125 0.640625 -6.921875 C 0.640625 -8.273438 0.957031 -9.488281 1.59375 -10.5625 C 2.226562 -11.632812 3.085938 -12.46875 4.171875 -13.0625 C 5.253906 -13.664062 6.441406 -13.96875 7.734375 -13.96875 C 9.023438 -13.96875 10.207031 -13.664062 11.28125 -13.0625 C 12.363281 -12.46875 13.21875 -11.632812 13.84375 -10.5625 C 14.46875 -9.488281 14.78125 -8.273438 14.78125 -6.921875 C 14.78125 -5.578125 14.460938 -4.363281 13.828125 -3.28125 C 13.203125 -2.207031 12.351562 -1.367188 11.28125 -0.765625 C 10.207031 -0.160156 9.023438 0.140625 7.734375 0.140625 Z M 7.734375 -2.921875 C 8.828125 -2.921875 9.703125 -3.285156 10.359375 -4.015625 C 11.023438 -4.753906 11.359375 -5.722656 11.359375 -6.921875 C 11.359375 -8.140625 11.023438 -9.113281 10.359375 -9.84375 C 9.703125 -10.570312 8.828125 -10.9375 7.734375 -10.9375 C 6.617188 -10.9375 5.726562 -10.570312 5.0625 -9.84375 C 4.40625 -9.125 4.078125 -8.148438 4.078125 -6.921875 C 4.078125 -5.710938 4.40625 -4.742188 5.0625 -4.015625 C 5.726562 -3.285156 6.617188 -2.921875 7.734375 -2.921875 Z M 7.734375 -2.921875 "/></g></g></g><g fill="#043a82" fill-opacity="1"><g transform="translate(99.628577, 202.174571)"><g><path d="M 22.15625 -16.375 C 24.007812 -15.976562 25.492188 -15.0625 26.609375 -13.625 C 27.734375 -12.1875 28.296875 -10.539062 28.296875 -8.6875 C 28.296875 -6.019531 27.363281 -3.90625 25.5 -2.34375 C 23.632812 -0.78125 21.035156 0 17.703125 0 L 2.828125 0 L 2.828125 -31.9375 L 17.203125 -31.9375 C 20.441406 -31.9375 22.976562 -31.191406 24.8125 -29.703125 C 26.65625 -28.222656 27.578125 -26.207031 27.578125 -23.65625 C 27.578125 -21.78125 27.082031 -20.21875 26.09375 -18.96875 C 25.101562 -17.726562 23.789062 -16.863281 22.15625 -16.375 Z M 10.59375 -19.015625 L 15.703125 -19.015625 C 16.972656 -19.015625 17.945312 -19.296875 18.625 -19.859375 C 19.3125 -20.421875 19.65625 -21.25 19.65625 -22.34375 C 19.65625 -23.4375 19.3125 -24.269531 18.625 -24.84375 C 17.945312 -25.414062 16.972656 -25.703125 15.703125 -25.703125 L 10.59375 -25.703125 Z M 16.328125 -6.28125 C 17.640625 -6.28125 18.648438 -6.570312 19.359375 -7.15625 C 20.066406 -7.75 20.421875 -8.609375 20.421875 -9.734375 C 20.421875 -10.859375 20.050781 -11.738281 19.3125 -12.375 C 18.570312 -13.007812 17.550781 -13.328125 16.25 -13.328125 L 10.59375 -13.328125 L 10.59375 -6.28125 Z M 16.328125 -6.28125 "/></g></g></g><g fill="#043a82" fill-opacity="1"><g transform="translate(129.607953, 202.174571)"><g><path d="M 19.109375 0 L 12.46875 -12.0625 L 10.59375 -12.0625 L 10.59375 0 L 2.828125 0 L 2.828125 -31.9375 L 15.875 -31.9375 C 18.394531 -31.9375 20.539062 -31.492188 22.3125 -30.609375 C 24.09375 -29.734375 25.421875 -28.53125 26.296875 -27 C 27.179688 -25.46875 27.625 -23.765625 27.625 -21.890625 C 27.625 -19.765625 27.023438 -17.867188 25.828125 -16.203125 C 24.628906 -14.535156 22.859375 -13.351562 20.515625 -12.65625 L 27.890625 0 Z M 10.59375 -17.5625 L 15.421875 -17.5625 C 16.847656 -17.5625 17.914062 -17.910156 18.625 -18.609375 C 19.34375 -19.304688 19.703125 -20.289062 19.703125 -21.5625 C 19.703125 -22.78125 19.34375 -23.738281 18.625 -24.4375 C 17.914062 -25.132812 16.847656 -25.484375 15.421875 -25.484375 L 10.59375 -25.484375 Z M 10.59375 -17.5625 "/></g></g></g><g fill="#043a82" fill-opacity="1"><g transform="translate(159.268886, 202.174571)"><g><path d="M 10.59375 -31.9375 L 10.59375 0 L 2.828125 0 L 2.828125 -31.9375 Z M 10.59375 -31.9375 "/></g></g></g><g fill="#043a82" fill-opacity="1"><g transform="translate(172.689097, 202.174571)"><g><path d="M 14.78125 -31.9375 C 18.15625 -31.9375 21.097656 -31.269531 23.609375 -29.9375 C 26.128906 -28.601562 28.078125 -26.726562 29.453125 -24.3125 C 30.835938 -21.90625 31.53125 -19.125 31.53125 -15.96875 C 31.53125 -12.84375 30.835938 -10.066406 29.453125 -7.640625 C 28.078125 -5.210938 26.125 -3.332031 23.59375 -2 C 21.0625 -0.664062 18.125 0 14.78125 0 L 2.828125 0 L 2.828125 -31.9375 Z M 14.28125 -6.734375 C 17.226562 -6.734375 19.519531 -7.535156 21.15625 -9.140625 C 22.789062 -10.753906 23.609375 -13.03125 23.609375 -15.96875 C 23.609375 -18.914062 22.789062 -21.207031 21.15625 -22.84375 C 19.519531 -24.476562 17.226562 -25.296875 14.28125 -25.296875 L 10.59375 -25.296875 L 10.59375 -6.734375 Z M 14.28125 -6.734375 "/></g></g></g><g fill="#043a82" fill-opacity="1"><g transform="translate(205.761948, 202.174571)"><g><path d="M 24.03125 -21.84375 C 23.445312 -22.90625 22.613281 -23.710938 21.53125 -24.265625 C 20.457031 -24.828125 19.195312 -25.109375 17.75 -25.109375 C 15.226562 -25.109375 13.207031 -24.28125 11.6875 -22.625 C 10.175781 -20.976562 9.421875 -18.773438 9.421875 -16.015625 C 9.421875 -13.078125 10.21875 -10.78125 11.8125 -9.125 C 13.40625 -7.46875 15.59375 -6.640625 18.375 -6.640625 C 20.289062 -6.640625 21.90625 -7.125 23.21875 -8.09375 C 24.539062 -9.070312 25.503906 -10.46875 26.109375 -12.28125 L 16.25 -12.28125 L 16.25 -18.015625 L 33.171875 -18.015625 L 33.171875 -10.78125 C 32.597656 -8.84375 31.617188 -7.035156 30.234375 -5.359375 C 28.859375 -3.691406 27.109375 -2.34375 24.984375 -1.3125 C 22.859375 -0.28125 20.460938 0.234375 17.796875 0.234375 C 14.640625 0.234375 11.820312 -0.453125 9.34375 -1.828125 C 6.875 -3.210938 4.945312 -5.132812 3.5625 -7.59375 C 2.1875 -10.050781 1.5 -12.859375 1.5 -16.015625 C 1.5 -19.171875 2.1875 -21.984375 3.5625 -24.453125 C 4.945312 -26.929688 6.867188 -28.859375 9.328125 -30.234375 C 11.785156 -31.617188 14.59375 -32.3125 17.75 -32.3125 C 21.570312 -32.3125 24.789062 -31.382812 27.40625 -29.53125 C 30.03125 -27.675781 31.769531 -25.113281 32.625 -21.84375 Z M 24.03125 -21.84375 "/></g></g></g><g fill="#043a82" fill-opacity="1"><g transform="translate(240.427027, 202.174571)"><g><path d="M 10.59375 -25.703125 L 10.59375 -19.25 L 21.015625 -19.25 L 21.015625 -13.234375 L 10.59375 -13.234375 L 10.59375 -6.234375 L 22.390625 -6.234375 L 22.390625 0 L 2.828125 0 L 2.828125 -31.9375 L 22.390625 -31.9375 L 22.390625 -25.703125 Z M 10.59375 -25.703125 "/></g></g></g><g fill="#000000" fill-opacity="1"><g transform="translate(276.476031, 201.638672)"><g><path d="M 11.71875 -9.34375 C 11.71875 -8.539062 11.53125 -7.804688 11.15625 -7.140625 C 10.789062 -6.484375 10.226562 -5.953125 9.46875 -5.546875 C 8.71875 -5.148438 7.78125 -4.953125 6.65625 -4.953125 L 4.578125 -4.953125 L 4.578125 0 L 1.21875 0 L 1.21875 -13.78125 L 6.65625 -13.78125 C 7.75 -13.78125 8.675781 -13.585938 9.4375 -13.203125 C 10.195312 -12.828125 10.765625 -12.304688 11.140625 -11.640625 C 11.523438 -10.972656 11.71875 -10.207031 11.71875 -9.34375 Z M 6.390625 -7.609375 C 7.035156 -7.609375 7.515625 -7.757812 7.828125 -8.0625 C 8.140625 -8.363281 8.296875 -8.789062 8.296875 -9.34375 C 8.296875 -9.894531 8.140625 -10.316406 7.828125 -10.609375 C 7.515625 -10.910156 7.035156 -11.0625 6.390625 -11.0625 L 4.578125 -11.0625 L 4.578125 -7.609375 Z M 6.390625 -7.609375 "/></g></g></g><g fill="#000000" fill-opacity="1"><g transform="translate(288.717123, 201.638672)"><g><path d="M 8.25 0 L 5.375 -5.203125 L 4.578125 -5.203125 L 4.578125 0 L 1.21875 0 L 1.21875 -13.78125 L 6.84375 -13.78125 C 7.9375 -13.78125 8.863281 -13.585938 9.625 -13.203125 C 10.394531 -12.828125 10.96875 -12.304688 11.34375 -11.640625 C 11.71875 -10.984375 11.90625 -10.25 11.90625 -9.4375 C 11.90625 -8.519531 11.644531 -7.703125 11.125 -6.984375 C 10.613281 -6.265625 9.851562 -5.753906 8.84375 -5.453125 L 12.03125 0 Z M 4.578125 -7.578125 L 6.65625 -7.578125 C 7.269531 -7.578125 7.726562 -7.726562 8.03125 -8.03125 C 8.34375 -8.332031 8.5 -8.753906 8.5 -9.296875 C 8.5 -9.828125 8.34375 -10.238281 8.03125 -10.53125 C 7.726562 -10.832031 7.269531 -10.984375 6.65625 -10.984375 L 4.578125 -10.984375 Z M 4.578125 -7.578125 "/></g></g></g><g fill="#000000" fill-opacity="1"><g transform="translate(301.507497, 201.638672)"><g><path d="M 7.734375 0.140625 C 6.441406 0.140625 5.253906 -0.160156 4.171875 -0.765625 C 3.085938 -1.367188 2.226562 -2.207031 1.59375 -3.28125 C 0.957031 -4.363281 0.640625 -5.578125 0.640625 -6.921875 C 0.640625 -8.273438 0.957031 -9.488281 1.59375 -10.5625 C 2.226562 -11.632812 3.085938 -12.46875 4.171875 -13.0625 C 5.253906 -13.664062 6.441406 -13.96875 7.734375 -13.96875 C 9.023438 -13.96875 10.207031 -13.664062 11.28125 -13.0625 C 12.363281 -12.46875 13.21875 -11.632812 13.84375 -10.5625 C 14.46875 -9.488281 14.78125 -8.273438 14.78125 -6.921875 C 14.78125 -5.578125 14.460938 -4.363281 13.828125 -3.28125 C 13.203125 -2.207031 12.351562 -1.367188 11.28125 -0.765625 C 10.207031 -0.160156 9.023438 0.140625 7.734375 0.140625 Z M 7.734375 -2.921875 C 8.828125 -2.921875 9.703125 -3.285156 10.359375 -4.015625 C 11.023438 -4.753906 11.359375 -5.722656 11.359375 -6.921875 C 11.359375 -8.140625 11.023438 -9.113281 10.359375 -9.84375 C 9.703125 -10.570312 8.828125 -10.9375 7.734375 -10.9375 C 6.617188 -10.9375 5.726562 -10.570312 5.0625 -9.84375 C 4.40625 -9.125 4.078125 -8.148438 4.078125 -6.921875 C 4.078125 -5.710938 4.40625 -4.742188 5.0625 -4.015625 C 5.726562 -3.285156 6.617188 -2.921875 7.734375 -2.921875 Z M 7.734375 -2.921875 "/></g></g></g></svg>