<?xml version="1.0" standalone="no"?>
<!DOCTYPE svg PUBLIC "-//W3C//DTD SVG 20010904//EN"
 "http://www.w3.org/TR/2001/REC-SVG-20010904/DTD/svg10.dtd">
<svg version="1.0" xmlns="http://www.w3.org/2000/svg"
 width="327.000000pt" height="61.000000pt" viewBox="0 0 327.000000 61.000000"
 preserveAspectRatio="xMidYMid meet">
<metadata>
Created by potrace 1.16, written by Peter Selinger 2001-2019
</metadata>
<g transform="translate(0.000000,61.000000) scale(0.100000,-0.100000)"
fill="#000000" stroke="none">
<path d="M0 305 l0 -305 1635 0 1635 0 0 305 0 305 -1635 0 -1635 0 0 -305z
m1936 181 l55 -26 -26 -35 c-15 -19 -30 -35 -33 -35 -3 0 -25 10 -49 21 -76
37 -154 9 -182 -64 -37 -98 52 -194 154 -166 35 10 35 11 35 64 l0 55 45 0 45
0 0 -84 0 -85 -57 -21 c-83 -31 -183 -26 -242 13 -159 105 -115 339 74 388 47
13 122 2 181 -25z m-1573 13 c47 -25 67 -51 67 -92 0 -30 -7 -45 -29 -66 l-29
-27 28 -16 c42 -24 59 -87 37 -133 -27 -57 -63 -69 -219 -73 l-138 -4 0 211 0
211 131 0 c77 0 139 -5 152 -11z m431 -3 c93 -39 113 -176 36 -244 l-28 -25
44 -68 44 -69 -59 0 -60 0 -33 60 c-32 59 -33 60 -75 60 l-43 0 0 -60 0 -60
-55 0 -55 0 0 210 0 210 125 0 c84 0 137 -5 159 -14z m266 -196 l0 -210 -55 0
-55 0 0 210 0 210 55 0 55 0 0 -210z m354 198 c141 -43 182 -238 71 -344 -53
-51 -101 -64 -239 -64 l-106 0 0 210 0 210 116 0 c64 0 135 -6 158 -12z m976
-28 l0 -40 -110 0 -110 0 0 -45 0 -45 100 0 100 0 0 -40 0 -40 -100 0 -100 0
0 -45 0 -45 115 0 115 0 0 -40 0 -40 -170 0 -170 0 0 210 0 210 165 0 165 0 0
-40z m191 -200 c14 -8 19 -21 19 -49 0 -46 -12 -58 -68 -67 -36 -6 -42 -10
-42 -30 0 -15 -6 -24 -15 -24 -12 0 -15 17 -15 90 l0 90 51 0 c28 0 59 -5 70
-10z m280 0 c25 -14 27 -85 2 -98 -16 -9 -16 -11 0 -36 21 -31 21 -36 3 -36
-7 0 -21 11 -30 25 -23 35 -66 35 -66 0 0 -16 -6 -25 -15 -25 -12 0 -15 17
-15 90 l0 90 51 0 c28 0 59 -5 70 -10z m301 -1 c11 -6 26 -26 34 -44 39 -95
-83 -170 -157 -96 -20 20 -29 39 -29 61 0 46 47 90 95 90 20 0 45 -5 57 -11z"/>
<path d="M620 359 l0 -71 61 4 c49 4 66 9 80 27 24 30 24 52 -2 85 -18 23 -28
26 -80 26 l-59 0 0 -71z"/>
<path d="M1250 305 l0 -125 60 0 c51 0 64 4 91 28 24 22 32 38 36 76 11 90
-44 146 -141 146 l-46 0 0 -125z"/>
</g>
</svg>
