<svg width="622" height="617" viewBox="0 0 622 617" fill="none" xmlns="http://www.w3.org/2000/svg">
<path d="M539.817 214.583L406.483 81.25M539.817 214.583L373.2 381.197C351.243 403.153 324.593 420.487 293.997 425.763C263.103 431.093 224.765 432.867 206.481 414.583C188.198 396.3 189.972 357.96 195.3 327.067C200.577 296.47 217.912 269.82 239.867 247.863L406.483 81.25M539.817 214.583C539.817 214.583 639.813 114.583 573.147 47.9167C506.48 -18.75 406.483 81.25 406.483 81.25M591.667 308.333C591.667 525 525 591.667 308.333 591.667C91.6667 591.667 25 525 25 308.333C25 91.6667 91.6667 25 308.333 25" stroke="#7480FF" stroke-width="50" stroke-linecap="round" stroke-linejoin="round"/>
</svg>
